<?xml version="1.0" encoding="UTF-8"?>
<!DOCTYPE svg PUBLIC "-//W3C//DTD SVG 1.1//EN" "http://www.w3.org/Graphics/SVG/1.1/DTD/svg11.dtd">
<!-- Creator: CorelDRAW 2021 (64-Bit) -->
<svg xmlns="http://www.w3.org/2000/svg" xml:space="preserve" width="1004px" height="186px" version="1.1" style="shape-rendering:geometricPrecision; text-rendering:geometricPrecision; image-rendering:optimizeQuality; fill-rule:evenodd; clip-rule:evenodd"
viewBox="0 0 3570370 660990"
 xmlns:xlink="http://www.w3.org/1999/xlink"
 xmlns:xodm="http://www.corel.com/coreldraw/odm/2003">
 <defs>
  <style type="text/css">
   <![CDATA[
    .fil2 {fill:#1A1A1A}
    .fil3 {fill:#FFCC00}
    .fil1 {fill:white}
    .fil0 {fill:white;fill-rule:nonzero}
   ]]>
  </style>
 </defs>
 <g id="Layer_x0020_1">
  <metadata id="CorelCorpID_0Corel-Layer"/>
  <path class="fil0" d="M682510 270580l-116970 85880c-4450,-16050 -4280,-33870 510,-53360l500 -1770 27310 0 0 -250c9160,-170 18740,-1350 28570,-3700 9160,-1930 18820,-4960 29070,-8990 10170,-4030 20510,-9910 31010,-17810zm-18990 -17230c-43610,-23270 -60410,-55370 -50160,-96300 4360,-18070 12600,-33520 24530,-46380 12020,-12860 25970,-23450 41930,-31600 15880,-8230 32940,-14280 51010,-18150 18150,-3860 35630,-5800 52350,-5800 10670,0 21510,930 32520,2610 11010,1760 21430,4620 31340,8740 9920,4120 18910,9660 26980,16640 8060,6970 14450,15710 19240,26210 420,840 840,1680 1180,2610 330,840 590,1760 750,2600l-109070 80250c4460,-3950 7900,-7980 10510,-12100 2520,-4120 4360,-8150 5540,-12010l670 -3030c3620,-13780 2020,-24280 -4870,-31510 -7060,-7560 -18070,-11260 -33020,-11260 -5550,0 -11430,590 -17730,1850 -6220,1170 -12100,3190 -17570,5880 -5540,2690 -10330,6220 -14450,10590 -4030,4370 -6970,9660 -8570,15880 -2020,8150 840,15630 8320,22350 8400,7230 24200,14710 47310,22440 1510,500 2860,920 4030,1340 1260,420 2440,840 3610,1350l-80240 58820c-5130,-1940 -9750,-3950 -14040,-5970 -4280,-2100 -8320,-4120 -12100,-6050zm178990 -82680l109070 -80080c-1010,1170 -3190,3610 -6560,7390 -3360,3780 -7060,7980 -11170,12690 -4120,4700 -8240,9490 -12350,14540 -4040,5040 -7320,9240 -9840,12680 -2600,3780 -4870,7570 -6720,11430 -1930,3870 -3440,7310 -4540,10510 -1340,3610 -2430,7140 -3270,10590l-930 0 0 250 -53690 0zm-22860 59070c35540,22940 48400,54450 38400,94530 -4620,18660 -12520,34540 -23700,47650 -11090,13020 -24200,23530 -39240,31590 -15040,8070 -31260,13870 -48820,17480 -17560,3610 -35120,5380 -52690,5380 -8570,0 -17480,-510 -26890,-1600 -9320,-1010 -18570,-2770 -27810,-5290 -9160,-2440 -17980,-5710 -26300,-9830 -8400,-4120 -15970,-9080 -22690,-15040 -1930,-930 -4450,-1430 -7390,-1430 -4200,0 -9330,840 -15210,2600 -5970,1680 -12190,4030 -18820,6890 -6730,2860 -13620,6140 -20840,9670 -7230,3610 -14210,7390 -20930,11340 -16050,8910 -32940,18990 -50500,30330l203860 -149480c-4460,18560 -2940,32010 4450,40410 7730,8660 22690,13030 45040,13030 5880,0 11760,-590 17480,-1850 5710,-1260 11090,-3200 16130,-5800 5040,-2600 9330,-6050 13030,-10330 3690,-4290 6300,-9500 7730,-15720 3020,-11850 1010,-21000 -5890,-27560 -7220,-6970 -21420,-14120 -42600,-21420 -3610,-1190 -7050,-2450 -10340,-3710l80250 -59070c6900,2770 13200,5550 18830,8490 5710,2860 10840,5710 15460,8740z"/>
  <path id="_1" class="fil0" d="M1048300 218900l-173020 127220c3780,-3780 9320,-9330 16720,-16800 7390,-7490 15210,-15800 23530,-25040 8230,-9170 16380,-18660 24450,-28410 8070,-9750 14710,-18900 19920,-27480l4960 -185870 92600 0 -9160 156380zm176040 -129240l-140330 103100 61760 -130240 79070 0 -250 2520 -250 24620zm-57900 330320l149750 -109990c-7400,7810 -14460,15540 -21180,23110 -4120,4450 -7560,8230 -10250,11340 -2690,3110 -5470,6300 -8240,9580 -2770,3280 -5460,6550 -7980,9750 -2520,3190 -4790,6130 -6810,8740l-22100 47470 -73190 0zm-21590 -193270l-94280 193270 -95040 0 2940 -117890 88820 -65210 -2180 37640 26380 -55370 212430 -155370c-10510,10000 -20000,19830 -28580,29580 -5040,5540 -9150,10250 -12260,14110 -3190,3870 -6050,7820 -8740,11850 -2770,4040 -5130,7990 -7150,11940 -2100,3940 -3360,7470 -3860,10580l-2180 132940 92770 -212260 92850 0 -114450 244700 -176300 129570c3110,-3360 6300,-6890 9590,-10590 2940,-3530 6050,-7140 9240,-11010 3190,-3860 6300,-7900 9240,-12180l760 -176300z"/>
  <path id="_2" class="fil0" d="M1509620 265870l-95200 70170c-5470,-24620 -4710,-52350 2180,-83190l5210 -20170c6050,-24960 15380,-48320 27900,-69910 12520,-21680 27810,-40590 45710,-56560 17810,-16040 38150,-28730 60920,-37890 22690,-9250 47230,-13870 73450,-13870 10160,0 20240,840 30160,2440 9920,1680 19330,4370 28320,8070 8910,3690 17390,8400 25380,14200 7890,5710 15040,12860 21260,21260l-125040 91840c2940,-2600 6890,-6300 11760,-11170 4960,-4880 9580,-10000 13950,-15550 4370,-5460 7650,-10840 10000,-16130 2270,-5210 2190,-9500 -250,-12780 -4290,-3610 -9070,-6220 -14280,-7730 -5300,-1590 -11180,-2350 -17740,-2350 -13610,0 -25540,2860 -35710,8490 -10170,5630 -18990,13020 -26300,22180 -7400,9070 -13610,19330 -18650,30750 -4960,11440 -9160,22860 -12440,34380l-6640 26300c-760,2940 -1510,5880 -2100,8740 -500,2850 -1180,5710 -1850,8480zm-192260 158900l535440 -393180c-18820,16140 -35540,31690 -50170,46810 -8900,8740 -15790,16050 -20840,22020 -4950,6050 -9570,12010 -13610,18150 -4110,6050 -7390,11930 -9750,17560 -2350,5710 -3360,10670 -2850,14870 4450,24200 2940,51090 -4460,80760l-3860 16550c-6130,24790 -15470,47980 -27980,69660 -12520,21680 -27730,40500 -45550,56470 -17810,16050 -38060,28570 -60670,37810 -22690,9160 -47140,13780 -73360,13780 -18060,0 -35460,-2600 -52180,-7900 -16800,-5200 -31680,-14370 -44780,-27310 -4290,-4110 -10680,-6130 -19250,-6130 -4790,0 -9920,590 -15550,1680 -5540,1180 -11250,2690 -17050,4540 -5800,1930 -11680,4030 -17650,6470 -5880,2350 -11590,4790 -17230,7220 -12600,5890 -25460,12610 -38650,20170zm338060 -192430c1590,-6890 2940,-13360 4030,-19410 1090,-6130 1850,-11930 2350,-17470 -500,-3370 -2600,-4960 -6380,-4960 -2020,0 -4290,500 -6900,1590 -2690,1090 -5290,2610 -7900,4540 -2430,1850 -6890,5130 -13190,9830 -6300,4790 -13530,10250 -21680,16390 -8070,6130 -16720,12690 -25790,19490 -9170,6810 -17570,13200 -25380,19160 -7820,5970 -14540,11180 -20170,15550 -5710,4280 -9240,7140 -10750,8490 -4210,3780 -8160,7640 -11770,11670 -3610,4040 -5040,8330 -4200,12950 840,14450 5290,25460 13450,33190 8060,7730 19660,11600 34780,11600 14120,0 26470,-3370 36970,-10090 10510,-6720 19580,-15290 27310,-25630 7740,-10330 14040,-21760 19080,-34200 4960,-12440 8990,-24540 11930,-36210l4210 -16480z"/>
  <path id="_3" class="fil0" d="M2121440 88400c20840,19330 26810,46720 17990,82020 -6220,25200 -16640,46040 -31260,62340 -14620,16390 -33950,29580 -57900,39750l26890 92350 0 -250 16470 56380 -102940 0 -34200 -125790 -44790 0 -11340 45290c170,1010 590,2020 1350,3110 750,1010 2350,1600 4790,1600 2010,0 4700,-590 8150,-1600 3440,-1090 7980,-2860 13530,-5290 -170,0 -1850,1170 -5130,3520 -3280,2360 -7560,5550 -12860,9500 -5210,3950 -11260,8320 -18060,13280 -6810,4950 -13780,9910 -20840,15040 -16390,12100 -35130,25880 -56130,41340l-28740 0 42100 -170580c-170,-1510 -930,-3360 -2110,-5550 -1260,-2270 -4030,-3360 -8230,-3360 -2020,0 -4370,340 -7140,1010 -2860,670 -6140,1760 -9920,3440 -7390,3290 -14280,6480 -20750,9590 -6470,3110 -12190,5880 -17140,8150 -5550,2770 -10760,5460 -15470,8150l92270 -67730 0 -250 196210 -144030c7390,330 14960,1010 22690,2010 7730,930 15210,2530 22600,4800 7390,2180 14540,5040 21350,8570 6800,3530 13020,7900 18560,13190zm-77560 88650c3620,-14790 2360,-26210 -3690,-34280 -5880,-8150 -16890,-12270 -32940,-12270l-54710 0 -23100 93530 53440 0c15880,0 29070,-3960 39500,-11940 10410,-7980 17550,-19660 21500,-35040zm50250 -177050l-248890 182680 30500 -123100 77060 0c4280,-510 9150,-1180 14620,-2100 5550,-840 11340,-2100 17480,-3700 6210,-1510 12520,-3530 18990,-5880 6470,-2350 12850,-5210 19070,-8490 6720,-3780 13530,-7560 20340,-11340 6800,-3780 13270,-7400 19580,-10840 6210,-3450 12010,-6640 17310,-9580 5370,-2950 10000,-5470 13940,-7650zm-356030 495610l151680 -111760 -8580 37390c-11170,2270 -24120,6560 -38650,12770 -13190,5640 -28320,13200 -45460,22690 -17150,9500 -36800,22440 -58990,38910z"/>
  <path id="_4" class="fil0" d="M2276730 420990l240080 -176300c-1180,1350 -3790,4290 -7820,8750 -3950,4530 -8650,9910 -13870,16130 -5290,6220 -10750,13110 -16460,20590 -5800,7470 -11100,14790 -16050,22010 -10000,16390 -21680,31260 -35040,44460 -13370,13190 -28070,24530 -43950,33940 -15970,9410 -32860,16810 -50840,22020 -17980,5290 -36640,8060 -56050,8400zm24870 -228980l-197630 145290c3440,-2940 7980,-7230 13610,-12690 5710,-5460 11930,-11770 18740,-18820 6800,-7060 13780,-14790 21010,-23280 7220,-8490 14030,-17140 20500,-25960 6390,-8910 12020,-17820 16800,-26810 4880,-9080 8240,-17730 10260,-26130l35460 -142270 120580 0c16640,0 32350,2020 47140,6140 14880,4110 27980,9830 39330,17220l-110330 81260c1680,-1680 4120,-4120 7390,-7310 3280,-3190 6390,-6470 9330,-9920 2940,-3440 5210,-6640 6800,-9660 1520,-2940 1430,-4870 -420,-5880 -4870,-1010 -10160,-1430 -15710,-1430l-28060 0 -14800 60250zm-99400 266120c2610,-2100 6050,-5210 10330,-9240 4210,-3950 8150,-7980 11680,-12020 3530,-4030 5970,-7560 7400,-10750 1340,-3110 420,-4790 -2860,-5130l-77560 0 30510 -123610 114780 -84200 -34030 137140 27810 0c15130,0 28400,-2860 39830,-8570 11350,-5800 21260,-13440 29490,-22940 8330,-9490 15220,-20420 20680,-32690 5540,-12350 9830,-25040 12940,-38230l3700 -15210c8570,-33860 8230,-59160 -1010,-76130 -2270,-4200 -4960,-7730 -8070,-10500l135370 -99240c-9660,9320 -18230,18320 -25620,26800 -4290,5130 -7650,9330 -10090,12690 -2440,3360 -4540,6810 -6300,10250 -1680,3450 -2940,6640 -3780,9660 -840,3110 -840,5720 0,8070 6050,8830 10840,18820 14280,30000 8570,26390 8740,55970 760,88650l-3700 15210 -286540 209990z"/>
  <path id="_5" class="fil0" d="M2595540 156550l179740 -131930c-1510,1510 -4790,5130 -9830,10840 -5130,5720 -10840,12350 -17310,19660 -6390,7400 -12770,14960 -19160,22690 -6380,7730 -11510,14290 -15290,19670 -5890,8400 -10510,16720 -13780,24870 -3280,8230 -5550,14700 -6890,19490l-29500 118910 -162260 119150c1010,-1010 3360,-3610 7140,-7820 3780,-4110 7990,-8900 12690,-14360 4710,-5380 9330,-10930 14040,-16640 4700,-5630 8400,-10420 11170,-14370 4120,-5720 7390,-11600 9750,-17480 2350,-5880 4120,-10590 5290,-14030l34200 -138650zm62770 125370l0 250 50760 -37220c-6730,7230 -13200,14200 -19250,20920 -3610,3950 -6550,7310 -8990,10090 -2350,2850 -4700,5630 -6970,8400 -2350,2770 -4540,5540 -6810,8400 -2180,2770 -4030,5210 -5550,7310 -3110,4460 -5710,8910 -7890,13450 -2100,4530 -3790,8650 -5130,12430 -1680,4290 -2860,8410 -3700,12360l-500 0 -20170 82680 -94030 0 13530 -54620 114700 -84450zm45290 -222090l-168640 123860c1340,-1510 4620,-5130 9740,-10840 5210,-5800 10930,-12270 17400,-19580 6380,-7310 12770,-14870 19150,-22690 6390,-7730 11600,-14360 15550,-19750 3950,-5960 7310,-11840 10170,-17720 2850,-5970 5130,-11350 6810,-16310 2100,-5540 3860,-11000 5120,-16220l250 0 260 -750 84190 0z"/>
  <path id="_6" class="fil0" d="M2839730 225540l-170830 125790c6390,-5880 13280,-13360 20670,-22270 7390,-8990 14450,-18650 21260,-29070 6800,-10420 13030,-21180 18660,-32270 5540,-11090 9740,-21680 12510,-31850l1260 -5880c6220,-24620 15380,-47640 27570,-69070 12100,-21430 26890,-40000 44200,-55800 17310,-15710 36970,-28150 59070,-37140 22100,-9080 46220,-13530 72520,-13530 7810,0 15970,340 24200,1090 8320,760 16470,2020 24540,3780 7980,1850 15790,4290 23360,7400 7560,3110 14530,7060 20920,11850l-135120 99150c1930,-1590 4530,-3940 7820,-6970 3270,-3030 6630,-6390 10080,-10000 3530,-3610 6890,-7310 10160,-11180 3280,-3860 5800,-7390 7740,-10670 1850,-3360 2850,-6130 2940,-8570 80,-2350 -1260,-3950 -4040,-4790 -6550,0 -12690,510 -18400,1350 -5630,920 -11010,2430 -16050,4450 -5130,2100 -10000,4790 -14700,8150 -4620,3360 -9330,7560 -13870,12690 -15630,17060 -27730,41510 -36470,73360zm63780 0l139070 0 -153860 113020c2440,-2190 5460,-4870 8910,-8150 3440,-3280 6890,-6730 10330,-10260 3450,-3520 6560,-7050 9420,-10670 2940,-3610 5120,-6890 6720,-9750 1510,-2850 2100,-5210 1680,-7140 -420,-1850 -2270,-2940 -5550,-3110l-32770 0 16050 -63940zm72100 -82520l184860 -135880c-18650,15300 -35120,30090 -49410,44370 -8570,8150 -15200,15130 -20000,20760 -4700,5630 -8990,11340 -12680,16970 -3700,5720 -6470,11180 -8490,16550 -1930,5300 -2350,10000 -1180,14120 760,2780 1270,5210 1430,7400 3280,14780 3530,31840 760,51170l-250 2270 -90340 0c680,-7730 590,-14960 -160,-21600 -680,-6630 -2190,-12010 -4540,-16130zm-186130 268390c-17980,-8910 -31680,-21010 -41090,-36470 -9330,-15370 -15040,-32850 -16970,-52430l103190 -75800 -1010 4210c-4290,17390 -6560,32600 -6810,45790 -250,13110 1680,24030 5800,32690 3450,7560 8320,13190 14540,16890 6210,3690 13190,6130 20920,7220l-78570 57900zm153690 -95540l153110 -112260c-1010,1170 -3030,3440 -6060,6890 -3020,3440 -6470,7300 -10250,11590 -3690,4290 -7390,8570 -11000,12940 -3620,4290 -6560,8070 -8910,11180 -1430,2610 -2860,5550 -4290,8740 -1430,3190 -2690,6220 -3950,8990 -1260,2770 -2180,5290 -2940,7480 -750,2260 -1260,3700 -1590,4290l-24880 99990 -500 500c-10340,8660 -22020,16140 -35040,22350 -13110,6310 -26730,11430 -41010,15470 -14290,3950 -28740,6970 -43190,8820 -14540,1850 -28490,2860 -41760,2860 -6390,0 -12690,-260 -18910,-760 -3780,0 -8230,590 -13190,1680 -5050,1180 -10250,2690 -15800,4620 -5460,1850 -11090,4040 -16810,6470 -5790,2530 -11260,4960 -16550,7400 -12770,5880 -25960,12520 -39580,19910l150420 -110500c19160,-670 34700,-5290 46470,-13780l6210 -24870z"/>
  <path id="_7" class="fil0" d="M3227190 265870l-95200 70170c-5470,-24620 -4710,-52350 2180,-83190l5210 -20170c6050,-24960 15380,-48320 27900,-69910 12520,-21680 27810,-40590 45710,-56560 17810,-16040 38150,-28730 60920,-37890 22690,-9250 47230,-13870 73450,-13870 10160,0 20250,840 30160,2440 9920,1680 19330,4370 28320,8070 8910,3690 17390,8400 25380,14200 7900,5710 15040,12860 21260,21260l-125040 91840c2940,-2600 6890,-6300 11760,-11170 4960,-4880 9590,-10000 13950,-15550 4370,-5460 7650,-10840 10000,-16130 2270,-5210 2190,-9500 -250,-12780 -4280,-3610 -9070,-6220 -14280,-7730 -5300,-1590 -11180,-2350 -17730,-2350 -13620,0 -25550,2860 -35720,8490 -10170,5630 -18990,13020 -26300,22180 -7390,9070 -13610,19330 -18650,30750 -4960,11440 -9160,22860 -12440,34380l-6640 26300c-760,2940 -1510,5880 -2100,8740 -500,2850 -1180,5710 -1850,8480zm-192260 158900l535440 -393180c-18820,16140 -35540,31690 -50170,46810 -8900,8740 -15790,16050 -20840,22020 -4950,6050 -9570,12010 -13610,18150 -4110,6050 -7390,11930 -9750,17560 -2350,5710 -3360,10670 -2850,14870 4450,24200 2940,51090 -4460,80760l-3860 16550c-6130,24790 -15460,47980 -27980,69660 -12520,21680 -27730,40500 -45550,56470 -17810,16050 -38060,28570 -60670,37810 -22690,9160 -47140,13780 -73360,13780 -18060,0 -35460,-2600 -52180,-7900 -16800,-5200 -31680,-14370 -44780,-27310 -4290,-4110 -10680,-6130 -19250,-6130 -4790,0 -9920,590 -15540,1680 -5550,1180 -11260,2690 -17060,4540 -5800,1930 -11680,4030 -17650,6470 -5880,2350 -11590,4790 -17230,7220 -12600,5890 -25460,12610 -38650,20170zm338060 -192430c1590,-6890 2940,-13360 4030,-19410 1090,-6130 1850,-11930 2350,-17470 -500,-3370 -2600,-4960 -6380,-4960 -2020,0 -4290,500 -6900,1590 -2690,1090 -5290,2610 -7890,4540 -2440,1850 -6890,5130 -13200,9830 -6300,4790 -13530,10250 -21680,16390 -8070,6130 -16720,12690 -25790,19490 -9170,6810 -17570,13200 -25380,19160 -7820,5970 -14540,11180 -20170,15550 -5710,4280 -9240,7140 -10750,8490 -4210,3780 -8160,7640 -11770,11670 -3610,4040 -5040,8330 -4200,12950 840,14450 5290,25460 13450,33190 8060,7730 19660,11600 34780,11600 14120,0 26470,-3370 36980,-10090 10500,-6720 19580,-15290 27300,-25630 7740,-10330 14040,-21760 19080,-34200 4960,-12440 8990,-24540 11930,-36210l4210 -16480z"/>
  <path class="fil1" d="M1747530 331320c5320,19810 7360,95390 7490,112700 -4380,21750 -2570,70450 3570,91750l-20 6470c-5050,34030 16700,120050 -18570,118740 -32900,-1220 -15740,-88120 -24790,-121780 -507680,-6490 -999610,30850 -1503500,69740 -65550,5060 -147410,19450 -211710,18270 11720,-13820 128890,-78640 154650,-94070 37550,-22510 162110,-27160 210680,-32380 283750,-30510 611640,-48100 897650,-56520 150570,-4430 300270,-1180 449920,-5690 210,-29450 -2510,-58930 -3020,-88220 -650,-36660 20510,-46860 37650,-19010z"/>
  <path class="fil1" d="M1758570 542240l20 -6470 16790 -1670 14140 -40210c12510,11620 9240,20420 21360,36790l4600 -6910c5280,-9710 5710,-18680 13050,-28390l11050 20430c4710,10160 2930,8770 9780,15630l16780 -39290c4910,10610 11640,32370 20920,37900l14230 -36290c640,570 1420,1520 1760,1970l3280 4140c410,640 1010,1610 1420,2300 5370,9160 5150,15230 15300,28560l16190 -38060 15160 29910c3870,6220 1710,3020 5230,6490 7460,-12680 7670,-22070 13220,-31790 4390,-7690 -710,-1010 5020,-6770l16620 39940c9230,-9530 9750,-22710 17580,-37460 7010,5740 5710,5720 11420,19020 3620,8410 3880,9740 8970,17140 9170,-11150 7970,-23530 18580,-37250l19430 37850c2620,-5500 5050,-11720 7890,-19190 4990,-13090 3110,-11570 9860,-19370l17320 38770c9770,-10560 8990,-21990 17340,-37110 10610,8480 8990,18350 20310,34120l3420 -4720c8320,-13860 4690,-17120 14240,-30290 10910,13180 10210,24920 20370,35840l13350 -30690c3150,-5670 1220,-2710 4510,-6490l18590 39320 15900 -39820c10730,11390 11040,23890 20470,37610 5250,-6980 15670,-28860 15710,-40050 50,-12190 -16310,-39820 -16890,-38140 -240,680 -1220,-1510 -1900,-2170l-13200 28650c-4340,7020 540,1090 -5560,6720 -2460,-6530 -5050,-13710 -8710,-21160l-10910 -15650 -13540 37210c-12290,-11860 -8780,-18840 -20910,-35970 -580,680 -1290,1720 -1610,2220 -310,500 -1160,1650 -1530,2270 -6620,11180 -6890,19900 -14530,30190l-3340 -4600c-420,-650 -1110,-1650 -1560,-2380 -440,-730 -1010,-1690 -1450,-2460 -1580,-2790 -3270,-6710 -5050,-10360 -4470,-9150 -4090,-9140 -8950,-15380 -5740,9230 -4770,10810 -8110,19450l-10540 17050 -16140 -35550c-9710,6410 -13840,26710 -16870,36340 -5420,-4760 -1760,70 -7230,-8580l-12390 -28280c-12040,12510 -8410,20550 -19170,35350l-20290 -33910c-6080,9400 -4180,7830 -8250,18070l-9440 16140c-9000,-14580 -9570,-25930 -20250,-35310l-14650 33430c-9810,-7470 -11990,-20820 -20240,-32410 -5610,6930 -4280,5780 -8680,16310l-9010 17890c-600,-740 -1350,-1810 -1720,-2360 -360,-550 -1240,-1700 -1670,-2380 -420,-670 -1110,-1680 -1550,-2430l-10290 -19910c-3010,-4710 -2480,-3730 -6100,-7170l-16150 37530c-5760,-11270 -12600,-30340 -21080,-37170l-14200 35480 -11740 -18040c-3490,-7650 -4520,-10500 -8590,-16980 -8880,10080 -8740,23100 -18830,36870l-19140 -36180c-8420,13310 -9160,25890 -17750,36700l-18220 -42080 -16800 -520c-130,-17310 -2170,-92890 -7490,-112700l4860 103200 498140 -780c51210,-200 129510,-20140 132790,50120 3380,72350 -59230,58500 -123670,56990 -54280,-1270 -111150,-320 -166700,140 -109630,900 -225240,-4520 -334380,1250z"/>
  <path class="fil2" d="M985440 472670c127340,-4890 679230,-28360 728280,-15670l1180 17880 -304940 5120c-369090,10080 -689310,22660 -1061470,62620 -68930,7400 -148500,22400 -215580,24950 590,-850 1610,-870 1930,-2380l34050 -23230c19710,-11210 133160,-18730 159150,-21390 212580,-21720 444750,-39760 657400,-47900z"/>
  <path class="fil3" d="M1758590 535770c-6140,-21300 -7950,-70000 -3570,-91750l16800 520 18220 42080c8590,-10810 9330,-23390 17750,-36700l19140 36180c10090,-13770 9950,-26790 18830,-36870 4070,6480 5100,9330 8590,16980l11740 18040 14200 -35480c8480,6830 15320,25900 21080,37170l16150 -37530c3620,3440 3090,2460 6100,7170l10290 19910c440,750 1130,1760 1550,2430 430,680 1310,1830 1670,2380 370,550 1120,1620 1720,2360l9010 -17890c4400,-10530 3070,-9380 8680,-16310 8250,11590 10430,24940 20240,32410l14650 -33430c10680,9380 11250,20730 20250,35310l9440 -16140c4070,-10240 2170,-8670 8250,-18070l20290 33910c10760,-14800 7130,-22840 19170,-35350l12390 28280c5470,8650 1810,3820 7230,8580 3030,-9630 7160,-29930 16870,-36340l16140 35550 10540 -17050c3340,-8640 2370,-10220 8110,-19450 4860,6240 4480,6230 8950,15380 1780,3650 3470,7570 5050,10360 440,770 1010,1730 1450,2460 450,730 1140,1730 1560,2380l3340 4600c7640,-10290 7910,-19010 14530,-30190 370,-620 1220,-1770 1530,-2270 320,-500 1030,-1540 1610,-2220 12130,17130 8620,24110 20910,35970l13540 -37210 10910 15650c3660,7450 6250,14630 8710,21160 6100,-5630 1220,300 5560,-6720l13200 -28650c680,660 1660,2850 1900,2170 580,-1680 16940,25950 16890,38140 -40,11190 -10460,33070 -15710,40050 -9430,-13720 -9740,-26220 -20470,-37610l-15900 39820 -18590 -39320c-3290,3780 -1360,820 -4510,6490l-13350 30690c-10160,-10920 -9460,-22660 -20370,-35840 -9550,13170 -5920,16430 -14240,30290l-3420 4720c-11320,-15770 -9700,-25640 -20310,-34120 -8350,15120 -7570,26550 -17340,37110l-17320 -38770c-6750,7800 -4870,6280 -9860,19370 -2840,7470 -5270,13690 -7890,19190l-19430 -37850c-10610,13720 -9410,26100 -18580,37250 -5090,-7400 -5350,-8730 -8970,-17140 -5710,-13300 -4410,-13280 -11420,-19020 -7830,14750 -8350,27930 -17580,37460l-16620 -39940c-5730,5760 -630,-920 -5020,6770 -5550,9720 -5760,19110 -13220,31790 -3520,-3470 -1360,-270 -5230,-6490l-15160 -29910 -16190 38060c-10150,-13330 -9930,-19400 -15300,-28560 -410,-690 -1010,-1660 -1420,-2300l-3280 -4140c-340,-450 -1120,-1400 -1760,-1970l-14230 36290c-9280,-5530 -16010,-27290 -20920,-37900l-16780 39290c-6850,-6860 -5070,-5470 -9780,-15630l-11050 -20430c-7340,9710 -7770,18680 -13050,28390l-4600 6910c-12120,-16370 -8850,-25170 -21360,-36790l-14140 40210 -16790 1670z"/>
  <path class="fil3" d="M2275250 443670c39680,-970 95370,-15160 97960,40580 2770,60010 -53180,44750 -93380,45910 -30,-18780 10480,-28310 10330,-43010 -110,-11320 -10890,-27830 -14910,-43480z"/>
 </g>
</svg>
