<?xml version="1.0" encoding="UTF-8"?>
<!DOCTYPE svg PUBLIC "-//W3C//DTD SVG 1.1//EN" "http://www.w3.org/Graphics/SVG/1.1/DTD/svg11.dtd">
<!-- Creator: CorelDRAW 2021 (64-Bit) -->
<svg xmlns="http://www.w3.org/2000/svg" xml:space="preserve" width="1249px" height="1361px" version="1.1" style="shape-rendering:geometricPrecision; text-rendering:geometricPrecision; image-rendering:optimizeQuality; fill-rule:evenodd; clip-rule:evenodd"
viewBox="0 0 142970 155740"
 xmlns:xlink="http://www.w3.org/1999/xlink"
 xmlns:xodm="http://www.corel.com/coreldraw/odm/2003">
 <defs>
  <style type="text/css">
   <![CDATA[
    .fil0 {fill:#1A1A1A}
    .fil1 {fill:white}
   ]]>
  </style>
 </defs>
 <g id="Layer_x0020_1">
  <metadata id="CorelCorpID_0Corel-Layer"/>
  <path class="fil0" d="M78490 72890c-3890,-910 -5880,-2060 -10480,-1850 -3420,8270 2400,5080 6930,10020l-26200 68720c-4120,660 -10190,-780 -12410,-310 -3320,710 -5860,2300 -10230,2600 -4340,300 -8140,-650 -12730,100 -4460,730 -8090,690 -12530,840l-840 20 0 2710c6370,-40 12270,-90 17050,-90 21940,0 43870,0 65810,-40l60110 0 0 -2950c-2080,-60 -4160,-130 -6240,-200l-28940 -760c-3020,450 -6150,880 -9210,800 -2920,-80 -6100,-600 -9020,-960 -2790,-350 -6130,-1540 -8180,-1630 -4790,-230 -4270,420 -9000,-1170 -2150,-720 -5340,-1600 -7170,-2820 880,-3930 22410,-55770 23350,-60180 3920,840 5200,1800 9770,1520 730,-1350 1220,-2400 1310,-4450l-8000 -5090c660,-4120 5560,-15250 7300,-19710 2610,-6640 5000,-13060 7440,-19740 2460,-6720 4930,-13240 7410,-19770 4860,-12750 7190,-14310 -1110,-17350 -7540,-2770 -6400,-1270 -11660,12720l-22530 59020z"/>
  <path class="fil1" d="M75560 83860c2420,1480 3330,1440 4130,3370 690,2450 -21830,53950 -23590,60770 1840,-420 4500,-1460 6160,-2200 2200,-980 2300,-3010 3210,-5330 1640,-4190 3240,-8190 4860,-12310 1950,-4970 8470,-20690 9500,-24690 -2130,-2590 -3060,-490 -560,-7380 970,-2700 1920,-5830 3150,-8280l3670 80 1680 -4440 -10560 -3940 -1650 4350z"/>
  <path class="fil1" d="M50430 149610c4720,-690 3850,-970 5540,-5280 1090,-2800 2140,-5400 3240,-8210 3060,-7810 18580,-46000 18420,-48860 -1260,-1110 -830,-850 -2400,-1460 -1420,2040 -5030,12510 -6230,15720l-12310 32040c-1730,4500 -5210,11860 -6260,16050z"/>
  <path class="fil1" d="M106380 3800c1460,1190 4080,1780 5930,2490 1980,760 4720,2890 4280,-450 -230,-1730 -8630,-7190 -10210,-2040z"/>
 </g>
</svg>
