<?xml version="1.0" encoding="UTF-8"?>
<!DOCTYPE svg PUBLIC "-//W3C//DTD SVG 1.1//EN" "http://www.w3.org/Graphics/SVG/1.1/DTD/svg11.dtd">
<!-- Creator: CorelDRAW 2021 (64-Bit) -->
<svg xmlns="http://www.w3.org/2000/svg" xml:space="preserve" width="1004px" height="186px" version="1.1" style="shape-rendering:geometricPrecision; text-rendering:geometricPrecision; image-rendering:optimizeQuality; fill-rule:evenodd; clip-rule:evenodd"
viewBox="0 0 3570350 660990"
 xmlns:xlink="http://www.w3.org/1999/xlink"
 xmlns:xodm="http://www.corel.com/coreldraw/odm/2003">
 <defs>
  <style type="text/css">
   <![CDATA[
    .fil2 {fill:#1A1A1A}
    .fil1 {fill:white}
    .fil0 {fill:white;fill-rule:nonzero}
   ]]>
  </style>
 </defs>
 <g id="Layer_x0020_1">
  <metadata id="CorelCorpID_0Corel-Layer"/>
  <path class="fil0" d="M682510 270570l-116970 85880c-4450,-16050 -4280,-33860 510,-53350l500 -1770 27310 0 0 -250c9160,-170 18740,-1350 28570,-3700 9160,-1930 18820,-4960 29070,-8990 10170,-4030 20510,-9910 31010,-17820zm-18990 -17220c-43610,-23280 -60420,-55370 -50170,-96300 4370,-18070 12610,-33530 24540,-46380 12020,-12860 25970,-23450 41930,-31600 15880,-8230 32940,-14280 51010,-18150 18150,-3860 35630,-5800 52350,-5800 10670,0 21510,930 32520,2610 11010,1760 21420,4620 31340,8740 9920,4120 18900,9660 26970,16630 8070,6980 14460,15720 19250,26220 420,840 840,1680 1170,2610 340,840 590,1760 760,2600l-109070 80250c4450,-3950 7900,-7980 10500,-12100 2520,-4120 4370,-8150 5550,-12010l670 -3030c3610,-13780 2020,-24280 -4870,-31510 -7060,-7560 -18070,-11260 -33030,-11260 -5540,0 -11430,590 -17730,1850 -6210,1170 -12090,3190 -17560,5880 -5550,2690 -10330,6220 -14450,10590 -4030,4370 -6970,9660 -8570,15880 -2020,8150 840,15630 8320,22350 8400,7230 24200,14710 47310,22440 1510,500 2850,920 4030,1340 1260,420 2440,840 3610,1350l-80250 58810c-5120,-1930 -9750,-3940 -14030,-5960 -4290,-2100 -8320,-4120 -12100,-6050zm178980 -82680l109070 -80080c-1000,1170 -3190,3610 -6550,7390 -3360,3780 -7060,7980 -11180,12690 -4110,4700 -8230,9490 -12350,14530 -4030,5050 -7310,9250 -9830,12690 -2610,3780 -4870,7570 -6720,11430 -1940,3870 -3450,7310 -4540,10500 -1340,3620 -2440,7150 -3280,10590l-920 0 0 260 -53700 0zm-22850 59070c35540,22940 48400,54450 38400,94530 -4620,18650 -12520,34540 -23700,47640 -11090,13030 -24200,23530 -39240,31600 -15040,8070 -31260,13860 -48820,17480 -17560,3610 -35120,5370 -52690,5370 -8570,0 -17480,-500 -26890,-1590 -9320,-1010 -18570,-2770 -27810,-5290 -9160,-2440 -17980,-5720 -26300,-9830 -8400,-4130 -15970,-9080 -22690,-15050 -1930,-920 -4450,-1430 -7390,-1430 -4200,0 -9330,840 -15210,2610 -5970,1680 -12190,4030 -18820,6890 -6730,2850 -13620,6140 -20840,9660 -7230,3620 -14210,7400 -20930,11350 -16050,8900 -32940,18990 -50500,30330l203860 -149490c-4460,18570 -2940,32020 4450,40420 7730,8650 22690,13030 45040,13030 5880,0 11760,-590 17480,-1850 5710,-1260 11090,-3200 16130,-5800 5040,-2610 9330,-6050 13020,-10340 3700,-4280 6310,-9490 7740,-15710 3020,-11850 1000,-21010 -5890,-27560 -7220,-6980 -21420,-14120 -42600,-21430 -3610,-1180 -7060,-2440 -10340,-3700l80250 -59070c6890,2770 13200,5550 18820,8490 5720,2860 10850,5710 15470,8740z"/>
  <path id="_1" class="fil0" d="M1048290 218900l-173020 127220c3790,-3780 9330,-9330 16730,-16810 7390,-7480 15210,-15800 23530,-25040 8230,-9160 16380,-18650 24450,-28400 8070,-9750 14700,-18910 19910,-27480l4960 -185870 92600 0 -9160 156380zm176040 -129240l-140330 103100 61760 -130240 79080 0 -260 2520 -250 24620zm-57890 330320l149740 -109990c-7400,7810 -14460,15540 -21180,23100 -4110,4460 -7560,8240 -10250,11350 -2690,3100 -5460,6300 -8240,9570 -2770,3280 -5460,6560 -7980,9750 -2520,3200 -4790,6140 -6800,8740l-22100 47480 -73190 0zm-21600 -193270l-94280 193270 -95040 0 2940 -117890 88830 -65210 -2190 37640 26390 -55370 212420 -155370c-10500,10000 -20000,19830 -28570,29580 -5040,5540 -9160,10250 -12270,14110 -3190,3870 -6050,7820 -8740,11850 -2770,4040 -5130,7990 -7140,11930 -2100,3950 -3360,7480 -3870,10590l-2180 132930 92770 -212250 92850 0 -114450 244690 -176290 129580c3110,-3370 6300,-6900 9580,-10590 2940,-3530 6050,-7140 9240,-11010 3190,-3860 6300,-7900 9240,-12190l760 -176290z"/>
  <path id="_2" class="fil0" d="M1509610 265870l-95200 70160c-5470,-24620 -4710,-52350 2180,-83180l5210 -20170c6050,-24960 15380,-48320 27900,-69920 12520,-21680 27810,-40580 45710,-56550 17820,-16040 38150,-28730 60920,-37890 22690,-9250 47230,-13870 73450,-13870 10160,0 20240,840 30160,2440 9920,1680 19330,4370 28320,8070 8910,3690 17390,8400 25380,14200 7890,5710 15040,12850 21260,21260l-125040 91840c2940,-2610 6890,-6300 11760,-11180 4960,-4870 9580,-9990 13950,-15540 4370,-5460 7650,-10840 10000,-16130 2270,-5210 2190,-9500 -250,-12780 -4290,-3610 -9070,-6220 -14280,-7730 -5300,-1590 -11180,-2350 -17730,-2350 -13620,0 -25550,2860 -35720,8480 -10170,5630 -18990,13030 -26300,22190 -7390,9070 -13610,19330 -18650,30750 -4960,11430 -9160,22860 -12440,34370l-6640 26310c-750,2940 -1510,5880 -2100,8730 -500,2860 -1180,5720 -1850,8490zm-192260 158900l535440 -393180c-18830,16140 -35540,31690 -50170,46810 -8900,8740 -15790,16050 -20840,22020 -4950,6050 -9580,12010 -13610,18150 -4110,6050 -7390,11930 -9750,17560 -2350,5710 -3360,10670 -2850,14870 4450,24200 2940,51090 -4460,80750l-3860 16560c-6140,24780 -15470,47980 -27980,69660 -12520,21680 -27730,40500 -45550,56460 -17810,16060 -38060,28570 -60670,37820 -22690,9160 -47140,13780 -73360,13780 -18060,0 -35450,-2610 -52180,-7900 -16800,-5210 -31680,-14370 -44780,-27310 -4290,-4120 -10680,-6130 -19250,-6130 -4790,0 -9910,590 -15540,1680 -5550,1170 -11260,2690 -17060,4540 -5800,1930 -11680,4030 -17650,6460 -5880,2360 -11590,4790 -17220,7230 -12610,5890 -25460,12610 -38660,20170zm338060 -192430c1590,-6890 2940,-13360 4030,-19410 1090,-6130 1850,-11930 2350,-17480 -500,-3360 -2600,-4960 -6380,-4960 -2020,0 -4290,510 -6900,1600 -2690,1090 -5290,2600 -7900,4540 -2430,1850 -6880,5130 -13190,9830 -6300,4790 -13530,10250 -21680,16390 -8070,6130 -16720,12680 -25790,19490 -9170,6810 -17570,13190 -25380,19160 -7820,5970 -14540,11170 -20170,15550 -5710,4280 -9240,7140 -10750,8480 -4210,3780 -8160,7650 -11770,11680 -3610,4030 -5040,8320 -4200,12940 840,14450 5290,25460 13450,33190 8060,7730 19660,11600 34780,11600 14120,0 26470,-3360 36980,-10080 10500,-6720 19580,-15290 27300,-25630 7740,-10340 14040,-21770 19080,-34200 4960,-12440 8990,-24540 11930,-36220l4210 -16470z"/>
  <path id="_3" class="fil0" d="M2121430 88400c20840,19330 26810,46720 17980,82010 -6210,25210 -16640,46050 -31250,62350 -14630,16390 -33950,29580 -57900,39750l26890 92350 0 -260 16470 56390 -102940 0 -34200 -125800 -44790 0 -11340 45300c170,1010 590,2010 1340,3110 760,1000 2360,1590 4790,1590 2020,0 4710,-590 8160,-1590 3440,-1100 7980,-2860 13520,-5300 -160,0 -1840,1180 -5120,3530 -3280,2350 -7560,5550 -12860,9500 -5210,3950 -11260,8320 -18060,13270 -6810,4960 -13790,9920 -20840,15040 -16390,12110 -35130,25880 -56130,41350l-28740 0 42090 -170580c-160,-1510 -920,-3370 -2100,-5550 -1260,-2270 -4030,-3360 -8230,-3360 -2020,0 -4370,340 -7140,1010 -2860,670 -6140,1760 -9920,3440 -7390,3280 -14280,6480 -20760,9580 -6460,3110 -12180,5890 -17130,8150 -5550,2780 -10760,5470 -15470,8150l92270 -67720 0 -250 196210 -144030c7390,330 14950,1010 22680,2010 7730,930 15210,2530 22610,4800 7390,2180 14530,5040 21340,8570 6810,3530 13020,7890 18570,13190zm-77560 88650c3620,-14790 2360,-26220 -3700,-34280 -5880,-8160 -16880,-12270 -32930,-12270l-54710 0 -23110 93520 53450 0c15880,0 29070,-3950 39490,-11930 10420,-7980 17560,-19660 21510,-35040zm50250 -177050l-248890 182680 30500 -123100 77050 0c4290,-510 9160,-1180 14630,-2100 5540,-840 11340,-2110 17470,-3700 6220,-1510 12530,-3530 18990,-5880 6470,-2350 12860,-5210 19080,-8490 6720,-3780 13530,-7560 20330,-11340 6810,-3790 13280,-7400 19580,-10840 6220,-3450 12020,-6640 17310,-9580 5380,-2950 10000,-5470 13950,-7650zm-356030 495610l151670 -111760 -8570 37390c-11170,2270 -24120,6550 -38650,12770 -13200,5630 -28320,13190 -45460,22690 -17150,9500 -36810,22440 -58990,38910z"/>
  <path id="_4" class="fil0" d="M2276720 420990l240070 -176300c-1180,1350 -3780,4290 -7810,8740 -3950,4540 -8660,9920 -13870,16140 -5290,6220 -10760,13110 -16470,20580 -5800,7480 -11090,14790 -16050,22020 -10000,16390 -21680,31260 -35040,44450 -13360,13190 -28060,24540 -43950,33950 -15960,9410 -32850,16800 -50840,22020 -17980,5290 -36630,8060 -56040,8400zm24870 -228980l-197640 145280c3450,-2940 7990,-7220 13620,-12690 5710,-5460 11930,-11760 18740,-18820 6800,-7060 13770,-14790 21000,-23270 7230,-8490 14030,-17150 20510,-25970 6380,-8910 12010,-17810 16800,-26800 4870,-9080 8230,-17730 10250,-26140l35460 -142260 120580 0c16640,0 32360,2020 47140,6140 14880,4110 27990,9830 39330,17220l-110330 81260c1680,-1680 4120,-4120 7400,-7310 3270,-3200 6380,-6470 9320,-9920 2940,-3440 5210,-6640 6810,-9660 1510,-2940 1430,-4880 -420,-5880 -4880,-1010 -10170,-1430 -15710,-1430l-28070 0 -14790 60250zm-99410 266120c2610,-2100 6060,-5210 10340,-9240 4200,-3950 8150,-7990 11680,-12020 3530,-4040 5960,-7560 7400,-10760 1340,-3110 420,-4790 -2860,-5120l-77560 0 30500 -123610 114780 -84200 -34030 137140 27820 0c15120,0 28400,-2860 39830,-8570 11340,-5800 21260,-13440 29490,-22940 8320,-9500 15210,-20420 20670,-32690 5550,-12350 9840,-25040 12940,-38230l3700 -15210c8570,-33860 8230,-59160 -1010,-76130 -2270,-4200 -4950,-7730 -8070,-10500l135380 -99240c-9670,9320 -18240,18320 -25630,26800 -4290,5130 -7650,9330 -10090,12690 -2430,3360 -4530,6810 -6300,10250 -1680,3450 -2940,6640 -3780,9660 -840,3110 -840,5720 0,8070 6050,8820 10840,18820 14280,30000 8580,26390 8750,55960 760,88650l-3700 15210 -286540 209990z"/>
  <path id="_5" class="fil0" d="M2595520 156550l179740 -131930c-1510,1510 -4790,5130 -9830,10840 -5130,5720 -10840,12350 -17310,19660 -6390,7400 -12770,14960 -19160,22690 -6380,7730 -11510,14290 -15290,19670 -5880,8400 -10500,16710 -13780,24870 -3280,8230 -5550,14700 -6890,19490l-29500 118900 -162260 119160c1010,-1010 3360,-3620 7150,-7820 3780,-4110 7980,-8900 12680,-14360 4710,-5390 9330,-10930 14040,-16640 4700,-5630 8400,-10420 11170,-14380 4120,-5710 7400,-11590 9750,-17470 2350,-5880 4120,-10590 5300,-14040l34190 -138640zm62770 125370l0 250 50760 -37230c-6720,7230 -13190,14210 -19250,20930 -3610,3950 -6550,7310 -8990,10080 -2350,2860 -4700,5630 -6970,8410 -2350,2770 -4540,5540 -6810,8400 -2180,2770 -4030,5210 -5540,7310 -3110,4450 -5720,8910 -7900,13440 -2100,4540 -3780,8660 -5130,12440 -1680,4290 -2850,8400 -3690,12350l-510 0 -20170 82690 -94030 0 13530 -54620 114700 -84450zm45300 -222090l-168650 123860c1340,-1510 4620,-5130 9750,-10840 5210,-5800 10920,-12270 17390,-19580 6390,-7310 12770,-14870 19160,-22690 6390,-7730 11600,-14360 15540,-19750 3950,-5960 7310,-11840 10170,-17720 2860,-5970 5130,-11350 6810,-16310 2100,-5540 3860,-11000 5120,-16220l260 0 250 -750 84200 0z"/>
  <path id="_6" class="fil0" d="M2839710 225540l-170830 125790c6390,-5890 13280,-13360 20670,-22270 7390,-8990 14460,-18650 21260,-29080 6810,-10410 13030,-21170 18660,-32260 5540,-11090 9740,-21680 12520,-31850l1260 -5880c6210,-24620 15370,-47650 27560,-69070 12100,-21430 26890,-40000 44200,-55800 17310,-15710 36970,-28150 59070,-37140 22100,-9080 46220,-13530 72520,-13530 7810,0 15960,340 24200,1090 8320,760 16470,2020 24540,3780 7980,1850 15790,4290 23360,7400 7560,3110 14530,7060 20920,11850l-135120 99150c1930,-1590 4530,-3950 7810,-6970 3280,-3030 6640,-6390 10090,-10000 3530,-3610 6890,-7310 10160,-11180 3280,-3860 5800,-7390 7740,-10670 1840,-3360 2850,-6130 2940,-8570 80,-2350 -1260,-3950 -4040,-4790 -6550,0 -12690,510 -18400,1350 -5630,920 -11010,2430 -16050,4450 -5130,2100 -10000,4790 -14700,8150 -4620,3360 -9330,7560 -13870,12690 -15630,17060 -27730,41510 -36470,73360zm63780 0l139070 0 -153860 113020c2440,-2190 5460,-4880 8910,-8150 3440,-3290 6890,-6730 10330,-10260 3450,-3530 6560,-7060 9420,-10670 2940,-3610 5120,-6890 6720,-9750 1510,-2860 2100,-5210 1680,-7140 -420,-1850 -2270,-2940 -5550,-3110l-32770 0 16050 -63940zm72100 -82520l184860 -135880c-18650,15300 -35120,30090 -49410,44370 -8570,8150 -15200,15130 -20000,20760 -4700,5630 -8990,11340 -12680,16970 -3700,5710 -6470,11180 -8490,16550 -1940,5300 -2360,10000 -1180,14120 760,2770 1260,5210 1430,7400 3280,14780 3530,31840 760,51170l-250 2270 -90340 0c670,-7730 590,-14960 -170,-21600 -670,-6640 -2180,-12010 -4530,-16130zm-186130 268390c-17980,-8910 -31680,-21010 -41090,-36470 -9330,-15380 -15040,-32860 -16970,-52440l103190 -75790 -1010 4200c-4290,17400 -6560,32610 -6810,45800 -250,13110 1680,24030 5800,32690 3450,7560 8320,13190 14540,16880 6210,3700 13190,6140 20920,7230l-78570 57900zm153690 -95540l153110 -112270c-1010,1180 -3030,3450 -6060,6890 -3020,3450 -6470,7310 -10250,11600 -3690,4290 -7390,8570 -11000,12940 -3620,4290 -6560,8070 -8910,11170 -1430,2610 -2860,5550 -4290,8750 -1430,3190 -2690,6210 -3950,8990 -1260,2770 -2180,5290 -2940,7470 -750,2270 -1260,3700 -1590,4290l-24880 99990 -500 510c-10340,8660 -22020,16130 -35040,22350 -13110,6300 -26730,11430 -41010,15460 -14290,3950 -28740,6980 -43190,8830 -14540,1840 -28490,2850 -41760,2850 -6390,0 -12690,-250 -18910,-750 -3780,0 -8230,580 -13190,1680 -5040,1170 -10250,2690 -15800,4620 -5460,1850 -11090,4030 -16810,6470 -5790,2520 -11250,4960 -16550,7390 -12770,5890 -25960,12520 -39580,19920l150420 -110500c19160,-670 34700,-5290 46470,-13780l6210 -24870z"/>
  <path id="_7" class="fil0" d="M3227170 265870l-95200 70160c-5470,-24620 -4710,-52350 2180,-83180l5210 -20170c6050,-24960 15370,-48320 27900,-69920 12520,-21680 27810,-40580 45710,-56550 17810,-16040 38150,-28730 60920,-37890 22690,-9250 47230,-13870 73440,-13870 10170,0 20250,840 30170,2440 9910,1680 19320,4370 28320,8070 8900,3690 17390,8400 25370,14200 7900,5710 15040,12850 21260,21260l-125030 91840c2940,-2610 6890,-6300 11760,-11180 4960,-4870 9580,-9990 13950,-15540 4370,-5460 7650,-10840 10000,-16130 2270,-5210 2180,-9500 -250,-12780 -4290,-3610 -9080,-6220 -14290,-7730 -5290,-1590 -11170,-2350 -17730,-2350 -13610,0 -25540,2860 -35710,8480 -10170,5630 -18990,13030 -26300,22190 -7400,9070 -13620,19330 -18660,30750 -4950,11430 -9150,22860 -12430,34370l-6640 26310c-760,2940 -1510,5880 -2100,8730 -510,2860 -1180,5720 -1850,8490zm-192260 158900l535440 -393180c-18830,16140 -35550,31690 -50170,46810 -8910,8740 -15800,16050 -20840,22020 -4960,6050 -9580,12010 -13610,18150 -4120,6050 -7390,11930 -9750,17560 -2350,5710 -3360,10670 -2860,14870 4460,24200 2940,51090 -4450,80750l-3870 16560c-6130,24780 -15460,47980 -27980,69660 -12520,21680 -27730,40500 -45540,56460 -17810,16060 -38070,28570 -60670,37820 -22690,9160 -47140,13780 -73360,13780 -18060,0 -35460,-2610 -52180,-7900 -16800,-5210 -31680,-14370 -44790,-27310 -4280,-4120 -10670,-6130 -19240,-6130 -4790,0 -9920,590 -15550,1680 -5540,1170 -11260,2690 -17050,4540 -5800,1930 -11680,4030 -17650,6460 -5880,2360 -11590,4790 -17230,7230 -12600,5890 -25460,12610 -38650,20170zm338050 -192430c1600,-6890 2940,-13360 4040,-19410 1090,-6130 1840,-11930 2350,-17480 -510,-3360 -2610,-4960 -6390,-4960 -2010,0 -4290,510 -6890,1600 -2690,1090 -5290,2600 -7900,4540 -2440,1850 -6890,5130 -13190,9830 -6300,4790 -13530,10250 -21680,16390 -8070,6130 -16720,12680 -25800,19490 -9160,6810 -17560,13190 -25370,19160 -7820,5970 -14540,11170 -20170,15550 -5710,4280 -9240,7140 -10760,8480 -4200,3780 -8150,7650 -11760,11680 -3610,4030 -5040,8320 -4200,12940 840,14450 5290,25460 13440,33190 8070,7730 19660,11600 34790,11600 14120,0 26470,-3360 36970,-10080 10510,-6720 19580,-15290 27310,-25630 7730,-10340 14040,-21770 19080,-34200 4950,-12440 8990,-24540 11930,-36220l4200 -16470z"/>
  <g id="_2679998753840">
   <path class="fil1" d="M1747520 331320c5320,19800 7360,95380 7490,112690 -4380,21760 -2570,70460 3570,91760l-20 6460c-5050,34030 16700,120050 -18570,118740 -32900,-1220 -15740,-88110 -24790,-121780 -507670,-6480 -999610,30860 -1503480,69750 -65550,5050 -147410,19450 -211720,18270 11730,-13830 128900,-78640 154650,-94070 37550,-22510 162110,-27160 210680,-32390 283740,-30500 611630,-48090 897650,-56510 150560,-4440 300260,-1180 449910,-5690 210,-29450 -2510,-58940 -3030,-88220 -640,-36660 20520,-46860 37660,-19010z"/>
   <path class="fil1" d="M1758560 542230l20 -6460 16790 -1670 14140 -40220c12510,11630 9240,20420 21360,36800l4600 -6920c5280,-9700 5710,-18680 13050,-28390l11050 20440c4710,10160 2930,8770 9780,15630l16780 -39290c4910,10600 11640,32360 20920,37900l14220 -36290c650,570 1430,1520 1770,1960l3280 4150c410,630 1010,1600 1420,2300 5370,9160 5150,15220 15290,28550l16200 -38060 15160 29910c3870,6220 1700,3030 5230,6490 7460,-12680 7670,-22060 13220,-31790 4380,-7690 -710,-1000 5020,-6760l16610 39930c9230,-9520 9760,-22700 17590,-37450 7010,5730 5710,5720 11420,19010 3620,8420 3880,9740 8960,17150 9180,-11160 7970,-23530 18580,-37250l19440 37850c2620,-5510 5050,-11720 7890,-19200 4980,-13090 3110,-11570 9860,-19360l17310 38770c9780,-10570 9000,-21990 17350,-37110 10600,8470 8990,18340 20310,34110l3410 -4720c8330,-13850 4700,-17110 14240,-30290 10910,13190 10220,24920 20370,35840l13350 -30680c3160,-5680 1230,-2710 4510,-6500l18600 39330 15900 -39820c10730,11390 11040,23890 20460,37610 5250,-6990 15670,-28860 15720,-40060 40,-12180 -16310,-39820 -16900,-38130 -240,680 -1220,-1520 -1900,-2170l-13190 28640c-4350,7020 530,1100 -5570,6730 -2450,-6540 -5050,-13720 -8700,-21160l-10910 -15660 -13550 37210c-12280,-11860 -8780,-18840 -20910,-35960 -580,680 -1280,1720 -1600,2220 -310,500 -1170,1640 -1540,2270 -6620,11180 -6890,19890 -14520,30190l-3340 -4610c-420,-640 -1120,-1640 -1570,-2370 -440,-730 -1010,-1690 -1440,-2470 -1590,-2780 -3270,-6700 -5050,-10350 -4470,-9150 -4100,-9140 -8950,-15390 -5740,9230 -4780,10810 -8110,19450l-10540 17060 -16140 -35550c-9710,6410 -13840,26710 -16870,36340 -5420,-4770 -1760,60 -7240,-8580l-12380 -28280c-12040,12510 -8410,20540 -19170,35340l-20290 -33900c-6090,9390 -4180,7830 -8250,18070l-9440 16130c-9000,-14580 -9580,-25930 -20250,-35310l-14650 33440c-9810,-7470 -12000,-20820 -20240,-32420 -5610,6930 -4280,5790 -8690,16320l-9000 17890c-610,-750 -1350,-1820 -1720,-2370 -360,-540 -1240,-1700 -1670,-2380 -420,-670 -1110,-1670 -1560,-2420l-10280 -19910c-3010,-4720 -2480,-3730 -6100,-7170l-16150 37520c-5760,-11260 -12600,-30340 -21090,-37160l-14190 35470 -11750 -18030c-3480,-7650 -4510,-10510 -8590,-16980 -8870,10080 -8730,23100 -18820,36870l-19140 -36180c-8430,13300 -9160,25890 -17760,36700l-18210 -42090 -16800 -520c-130,-17310 -2170,-92890 -7490,-112690l4860 103200 498140 -780c51210,-200 129500,-20150 132780,50120 3380,72350 -59230,58490 -123670,56980 -54280,-1260 -111150,-310 -166690,150 -109630,900 -225240,-4520 -334380,1240z"/>
   <path class="fil2" d="M985440 472660c127330,-4890 679220,-28360 728270,-15670l1170 17890 -304930 5110c-369080,10080 -689300,22670 -1061460,62620 -68930,7400 -148490,22400 -215580,24960 590,-860 1620,-880 1930,-2380l34060 -23240c19710,-11200 133150,-18730 159140,-21380 212580,-21720 444740,-39760 657400,-47910z"/>
   <path class="fil2" d="M1758580 535770c-6140,-21300 -7950,-70000 -3570,-91760l16800 520 18210 42090c8600,-10810 9330,-23400 17760,-36700l19140 36180c10090,-13770 9950,-26790 18820,-36870 4080,6470 5110,9330 8590,16980l11750 18030 14190 -35470c8490,6820 15330,25900 21090,37160l16150 -37520c3620,3440 3090,2450 6100,7170l10280 19910c450,750 1140,1750 1560,2420 430,680 1310,1840 1670,2380 370,550 1110,1620 1720,2370l9000 -17890c4410,-10530 3080,-9390 8690,-16320 8240,11600 10430,24950 20240,32420l14650 -33440c10670,9380 11250,20730 20250,35310l9440 -16130c4070,-10240 2160,-8680 8250,-18070l20290 33900c10760,-14800 7130,-22830 19170,-35340l12380 28280c5480,8640 1820,3810 7240,8580 3030,-9630 7160,-29930 16870,-36340l16140 35550 10540 -17060c3330,-8640 2370,-10220 8110,-19450 4850,6250 4480,6240 8950,15390 1780,3650 3460,7570 5050,10350 430,780 1000,1740 1440,2470 450,730 1150,1730 1570,2370l3340 4610c7630,-10300 7900,-19010 14520,-30190 370,-630 1230,-1770 1540,-2270 320,-500 1020,-1540 1600,-2220 12130,17120 8630,24100 20910,35960l13550 -37210 10910 15660c3650,7440 6250,14620 8700,21160 6100,-5630 1220,290 5570,-6730l13190 -28640c680,650 1660,2850 1900,2170 590,-1690 16940,25950 16900,38130 -50,11200 -10470,33070 -15720,40060 -9420,-13720 -9730,-26220 -20460,-37610l-15900 39820 -18600 -39330c-3280,3790 -1350,820 -4510,6500l-13350 30680c-10150,-10920 -9460,-22650 -20370,-35840 -9540,13180 -5910,16440 -14240,30290l-3410 4720c-11320,-15770 -9710,-25640 -20310,-34110 -8350,15120 -7570,26540 -17350,37110l-17310 -38770c-6750,7790 -4880,6270 -9860,19360 -2840,7480 -5270,13690 -7890,19200l-19440 -37850c-10610,13720 -9400,26090 -18580,37250 -5080,-7410 -5340,-8730 -8960,-17150 -5710,-13290 -4410,-13280 -11420,-19010 -7830,14750 -8360,27930 -17590,37450l-16610 -39930c-5730,5760 -640,-930 -5020,6760 -5550,9730 -5760,19110 -13220,31790 -3530,-3460 -1360,-270 -5230,-6490l-15160 -29910 -16200 38060c-10140,-13330 -9920,-19390 -15290,-28550 -410,-700 -1010,-1670 -1420,-2300l-3280 -4150c-340,-440 -1120,-1390 -1770,-1960l-14220 36290c-9280,-5540 -16010,-27300 -20920,-37900l-16780 39290c-6850,-6860 -5070,-5470 -9780,-15630l-11050 -20440c-7340,9710 -7770,18690 -13050,28390l-4600 6920c-12120,-16380 -8850,-25170 -21360,-36800l-14140 40220 -16790 1670z"/>
   <path class="fil2" d="M2275240 443660c39680,-960 95370,-15160 97950,40580 2780,60020 -53170,44760 -93370,45920 -30,-18790 10480,-28310 10330,-43010 -120,-11320 -10890,-27830 -14910,-43490z"/>
  </g>
 </g>
</svg>
