<?xml version="1.0" encoding="UTF-8"?>
<!DOCTYPE svg PUBLIC "-//W3C//DTD SVG 1.1//EN" "http://www.w3.org/Graphics/SVG/1.1/DTD/svg11.dtd">
<!-- Creator: CorelDRAW 2021 (64-Bit) -->
<svg xmlns="http://www.w3.org/2000/svg" xml:space="preserve" width="1004px" height="186px" version="1.1" style="shape-rendering:geometricPrecision; text-rendering:geometricPrecision; image-rendering:optimizeQuality; fill-rule:evenodd; clip-rule:evenodd"
viewBox="0 0 1155300 213880"
 xmlns:xlink="http://www.w3.org/1999/xlink"
 xmlns:xodm="http://www.corel.com/coreldraw/odm/2003">
 <defs>
  <style type="text/css">
   <![CDATA[
    .fil1 {fill:#1A1A1A}
    .fil3 {fill:#FF9933}
    .fil2 {fill:white}
    .fil0 {fill:#1A1A1A;fill-rule:nonzero}
   ]]>
  </style>
 </defs>
 <g id="Layer_x0020_1">
  <metadata id="CorelCorpID_0Corel-Layer"/>
  <g id="_2679998755520">
   <path class="fil0" d="M220850 87550l-37850 27790c-1440,-5190 -1390,-10960 160,-17260l170 -580 8830 0 0 -80c2970,-50 6070,-430 9250,-1190 2960,-630 6090,-1610 9410,-2910 3290,-1310 6630,-3210 10030,-5770zm-6150 -5570c-14110,-7530 -19550,-17920 -16230,-31160 1420,-5850 4080,-10850 7940,-15010 3890,-4160 8400,-7590 13570,-10220 5140,-2670 10660,-4630 16500,-5880 5880,-1250 11530,-1870 16940,-1870 3460,0 6960,300 10530,840 3560,570 6930,1490 10140,2830 3210,1330 6120,3120 8730,5380 2610,2260 4670,5090 6220,8480 140,280 280,550 380,850 110,270 190,570 250,840l-35300 25970c1450,-1280 2560,-2590 3400,-3920 820,-1330 1420,-2630 1800,-3890l220 -980c1160,-4450 650,-7850 -1580,-10190 -2280,-2450 -5850,-3640 -10690,-3640 -1790,0 -3700,190 -5730,590 -2020,380 -3920,1040 -5690,1910 -1790,870 -3340,2010 -4670,3420 -1310,1420 -2260,3130 -2780,5140 -650,2640 280,5060 2700,7230 2710,2340 7830,4760 15300,7260 490,170 930,300 1310,440 410,140 790,270 1170,430l-25970 19040c-1660,-630 -3150,-1280 -4540,-1930 -1390,-680 -2690,-1330 -3920,-1960zm57920 -26760l35290 -25910c-320,380 -1030,1170 -2120,2390 -1090,1230 -2280,2590 -3610,4110 -1340,1520 -2670,3070 -4000,4700 -1310,1640 -2370,2990 -3180,4110 -850,1220 -1580,2450 -2180,3700 -620,1250 -1110,2360 -1470,3400 -430,1170 -780,2310 -1060,3420l-290 0 0 80 -17380 0zm-7400 19120c11510,7420 15670,17620 12430,30590 -1500,6030 -4050,11170 -7670,15420 -3590,4210 -7830,7610 -12700,10220 -4860,2610 -10110,4490 -15790,5650 -5690,1170 -11370,1740 -17050,1740 -2770,0 -5660,-160 -8700,-510 -3020,-330 -6010,-900 -9000,-1710 -2970,-790 -5820,-1850 -8510,-3190 -2720,-1330 -5170,-2930 -7340,-4860 -630,-300 -1450,-470 -2400,-470 -1360,0 -3020,280 -4920,850 -1930,540 -3940,1300 -6090,2230 -2180,920 -4400,1980 -6740,3120 -2340,1170 -4600,2400 -6770,3670 -5200,2890 -10660,6150 -16340,9820l65960 -48370c-1440,6010 -950,10360 1440,13080 2500,2800 7340,4210 14580,4210 1900,0 3800,-190 5650,-600 1850,-400 3590,-1030 5220,-1870 1630,-850 3020,-1960 4210,-3350 1200,-1380 2050,-3070 2510,-5080 980,-3840 320,-6800 -1910,-8920 -2340,-2260 -6930,-4570 -13780,-6930 -1170,-390 -2290,-790 -3350,-1200l25970 -19120c2230,900 4270,1800 6090,2750 1850,930 3510,1850 5000,2830z"/>
   <path id="_1" class="fil0" d="M339210 70830l-55990 41170c1230,-1230 3020,-3020 5420,-5440 2390,-2420 4920,-5110 7610,-8100 2660,-2970 5300,-6040 7910,-9190 2610,-3160 4760,-6120 6450,-8900l1600 -60140 29960 0 -2960 50600zm56960 -41820l-45400 33360 19980 -42140 25590 0 -80 820 -90 7960zm-18730 106890l48450 -35590c-2390,2520 -4670,5030 -6850,7470 -1330,1440 -2450,2670 -3320,3670 -870,1010 -1760,2040 -2660,3100 -900,1060 -1770,2130 -2580,3160 -820,1030 -1550,1980 -2210,2830l-7150 15360 -23680 0zm-6990 -62540l-30510 62540 -30750 0 950 -38150 28740 -21100 -700 12180 8540 -17920 68730 -50270c-3400,3230 -6470,6410 -9240,9570 -1630,1790 -2970,3320 -3970,4570 -1040,1250 -1960,2520 -2830,3830 -900,1310 -1660,2580 -2310,3860 -680,1280 -1090,2420 -1250,3430l-710 43010 30020 -68680 30040 0 -37030 79180 -57040 41930c1000,-1090 2030,-2230 3100,-3430 950,-1140 1950,-2310 2990,-3560 1030,-1250 2040,-2560 2990,-3940l240 -57050z"/>
   <path id="_2" class="fil0" d="M488490 86030l-30810 22710c-1770,-7970 -1520,-16940 710,-26920l1680 -6530c1960,-8070 4980,-15630 9030,-22620 4050,-7020 9000,-13130 14790,-18300 5760,-5190 12350,-9300 19710,-12260 7350,-3000 15290,-4490 23770,-4490 3290,0 6550,270 9760,790 3210,540 6250,1410 9160,2610 2880,1200 5630,2720 8210,4590 2560,1850 4870,4160 6880,6880l-40460 29720c960,-840 2230,-2040 3810,-3610 1610,-1580 3100,-3240 4510,-5040 1420,-1760 2480,-3500 3240,-5210 730,-1690 710,-3080 -80,-4140 -1390,-1170 -2940,-2010 -4620,-2500 -1720,-520 -3620,-760 -5740,-760 -4410,0 -8270,920 -11560,2750 -3290,1820 -6140,4210 -8510,7170 -2390,2940 -4400,6260 -6030,9960 -1610,3690 -2970,7390 -4030,11120l-2150 8510c-240,950 -490,1900 -680,2820 -160,930 -380,1850 -590,2750zm-62220 51420l173260 -127230c-6090,5220 -11500,10260 -16230,15150 -2880,2830 -5110,5190 -6740,7120 -1610,1960 -3100,3890 -4410,5880 -1330,1950 -2390,3860 -3150,5680 -760,1850 -1090,3450 -930,4810 1440,7830 950,16530 -1440,26130l-1250 5360c-1980,8020 -5000,15520 -9050,22540 -4050,7010 -8980,13110 -14740,18270 -5760,5190 -12320,9250 -19630,12240 -7340,2960 -15260,4460 -23740,4460 -5850,0 -11470,-850 -16890,-2560 -5430,-1690 -10250,-4650 -14490,-8840 -1390,-1330 -3450,-1980 -6220,-1980 -1550,0 -3210,190 -5040,540 -1790,380 -3640,870 -5510,1470 -1880,630 -3780,1310 -5710,2090 -1910,770 -3760,1550 -5580,2340 -4080,1910 -8240,4080 -12510,6530zm109390 -62270c520,-2230 950,-4320 1310,-6280 350,-1980 590,-3860 760,-5650 -170,-1090 -840,-1610 -2070,-1610 -650,0 -1390,160 -2230,520 -870,350 -1710,840 -2550,1470 -790,590 -2230,1650 -4270,3180 -2040,1550 -4380,3310 -7020,5300 -2610,1980 -5410,4110 -8350,6310 -2960,2200 -5680,4270 -8210,6200 -2530,1930 -4700,3610 -6520,5030 -1850,1380 -2990,2310 -3480,2740 -1360,1230 -2640,2480 -3810,3780 -1170,1310 -1630,2700 -1360,4190 270,4680 1710,8240 4350,10740 2610,2500 6360,3750 11260,3750 4570,0 8560,-1090 11960,-3260 3400,-2180 6340,-4950 8840,-8290 2500,-3350 4540,-7050 6170,-11070 1600,-4020 2910,-7940 3860,-11720l1360 -5330z"/>
   <path id="_3" class="fil0" d="M686460 28600c6740,6260 8670,15120 5820,26540 -2010,8160 -5390,14900 -10120,20180 -4730,5300 -10980,9570 -18730,12860l8700 29880 0 -80 5330 18240 -33310 0 -11060 -40700 -14500 0 -3670 14660c60,320 190,650 440,1000 240,330 760,520 1550,520 650,0 1520,-190 2630,-520 1120,-350 2590,-920 4380,-1710 -50,0 -600,380 -1660,1140 -1060,760 -2440,1800 -4160,3070 -1680,1280 -3640,2700 -5840,4300 -2210,1600 -4460,3210 -6750,4870 -5300,3910 -11360,8370 -18160,13370l-9300 0 13620 -55190c-50,-490 -300,-1090 -680,-1800 -400,-730 -1300,-1080 -2660,-1080 -650,0 -1410,100 -2310,320 -930,220 -1990,570 -3210,1120 -2390,1060 -4620,2090 -6720,3100 -2090,1000 -3940,1900 -5540,2630 -1800,900 -3480,1770 -5010,2640l29860 -21910 0 -90 63490 -46600c2390,110 4840,330 7340,650 2500,300 4920,820 7310,1550 2400,710 4710,1630 6910,2780 2200,1140 4220,2550 6010,4260zm-25100 28690c1170,-4790 770,-8480 -1190,-11090 -1910,-2640 -5470,-3970 -10660,-3970l-17700 0 -7480 30260 17290 0c5140,0 9410,-1280 12780,-3860 3370,-2580 5690,-6360 6960,-11340zm16260 -57290l-80530 59110 9870 -39830 24930 0c1390,-170 2960,-380 4730,-680 1790,-270 3670,-680 5660,-1200 2010,-490 4050,-1140 6140,-1900 2090,-760 4160,-1690 6170,-2750 2180,-1220 4380,-2450 6580,-3670 2210,-1220 4300,-2390 6340,-3510 2010,-1110 3890,-2140 5600,-3100 1740,-950 3240,-1760 4510,-2470zm-115200 160370l49080 -36160 -2780 12100c-3610,730 -7800,2120 -12500,4130 -4270,1820 -9170,4270 -14720,7340 -5540,3070 -11900,7260 -19080,12590z"/>
   <path id="_4" class="fil0" d="M736710 136220l77680 -57040c-380,430 -1220,1390 -2530,2830 -1270,1470 -2800,3210 -4480,5220 -1720,2010 -3480,4240 -5330,6660 -1880,2420 -3590,4790 -5200,7120 -3230,5310 -7010,10120 -11330,14390 -4330,4270 -9090,7940 -14230,10980 -5160,3050 -10630,5440 -16450,7130 -5810,1710 -11850,2610 -18130,2710zm8050 -74090l-63950 47010c1110,-950 2580,-2330 4400,-4100 1850,-1770 3860,-3810 6060,-6090 2210,-2290 4460,-4790 6800,-7540 2340,-2740 4540,-5540 6640,-8400 2060,-2880 3880,-5760 5430,-8670 1580,-2940 2670,-5740 3320,-8460l11480 -46030 39010 0c5390,0 10470,650 15260,1980 4810,1340 9050,3190 12720,5580l-35700 26290c550,-540 1330,-1330 2390,-2360 1060,-1040 2070,-2100 3020,-3210 950,-1120 1690,-2150 2200,-3130 490,-950 470,-1580 -130,-1900 -1580,-330 -3290,-470 -5090,-470l-9080 0 -4780 19500zm-32170 86110c840,-680 1960,-1680 3350,-2990 1350,-1280 2630,-2580 3770,-3890 1150,-1300 1930,-2440 2400,-3480 430,-1000 130,-1550 -930,-1660l-25090 0 9870 -39990 37140 -27250 -11010 44380 9000 0c4890,0 9190,-930 12880,-2780 3680,-1870 6880,-4350 9550,-7420 2690,-3070 4920,-6610 6690,-10580 1790,-3990 3180,-8100 4180,-12370l1200 -4920c2770,-10960 2670,-19140 -330,-24630 -730,-1360 -1600,-2510 -2610,-3400l43810 -32110c-3130,3010 -5900,5920 -8290,8670 -1390,1660 -2480,3020 -3270,4100 -790,1090 -1470,2210 -2040,3320 -540,1120 -950,2150 -1220,3130 -270,1000 -270,1850 0,2610 1960,2850 3510,6090 4620,9710 2780,8530 2830,18110 250,28680l-1200 4920 -92720 67950z"/>
   <path id="_5" class="fil0" d="M839870 50660l58160 -42690c-490,490 -1550,1660 -3180,3500 -1660,1850 -3510,4000 -5600,6370 -2070,2390 -4140,4840 -6200,7340 -2070,2500 -3730,4620 -4950,6360 -1910,2720 -3400,5410 -4460,8050 -1060,2660 -1790,4760 -2230,6310l-9540 38470 -52510 38560c330,-330 1090,-1170 2310,-2530 1230,-1330 2590,-2880 4110,-4650 1520,-1740 3020,-3530 4540,-5380 1520,-1830 2720,-3370 3610,-4650 1340,-1850 2400,-3760 3160,-5660 760,-1900 1330,-3430 1710,-4540l11070 -44860zm20310 40560l0 90 16420 -12050c-2170,2340 -4270,4600 -6220,6770 -1170,1280 -2120,2370 -2910,3260 -760,930 -1530,1830 -2260,2720 -760,900 -1470,1800 -2200,2720 -710,900 -1310,1690 -1800,2370 -1000,1440 -1850,2880 -2550,4350 -680,1470 -1230,2800 -1660,4020 -540,1390 -930,2720 -1200,4000l-160 0 -6530 26750 -30420 0 4370 -17670 37120 -27330zm14660 -71860l-54580 40080c440,-490 1500,-1660 3160,-3510 1680,-1880 3530,-3970 5630,-6330 2060,-2370 4130,-4820 6200,-7350 2060,-2500 3750,-4640 5030,-6390 1270,-1930 2360,-3830 3290,-5730 920,-1930 1660,-3670 2200,-5280 680,-1790 1250,-3560 1660,-5250l80 0 80 -240 27250 0z"/>
   <path id="_6" class="fil0" d="M918880 72980l-55270 40700c2060,-1900 4290,-4320 6680,-7200 2400,-2910 4680,-6040 6880,-9410 2210,-3370 4220,-6850 6040,-10440 1790,-3590 3150,-7020 4050,-10310l410 -1900c2010,-7970 4980,-15420 8920,-22350 3910,-6930 8700,-12940 14300,-18050 5600,-5090 11960,-9110 19110,-12020 7160,-2940 14960,-4380 23470,-4380 2530,0 5170,110 7830,350 2690,250 5330,660 7940,1230 2580,590 5110,1380 7560,2390 2450,1010 4700,2280 6770,3830l-43720 32090c620,-520 1470,-1280 2530,-2260 1060,-980 2140,-2070 3260,-3230 1140,-1170 2230,-2370 3290,-3620 1060,-1250 1880,-2390 2500,-3450 600,-1090 930,-1990 950,-2780 30,-760 -400,-1280 -1300,-1550 -2120,0 -4110,170 -5960,440 -1820,300 -3560,790 -5190,1440 -1660,680 -3240,1550 -4760,2640 -1490,1080 -3020,2440 -4490,4100 -5050,5520 -8970,13430 -11800,23740zm20640 0l45000 0 -49780 36570c780,-710 1760,-1580 2880,-2640 1110,-1060 2230,-2170 3340,-3310 1120,-1150 2120,-2290 3050,-3460 950,-1170 1660,-2230 2170,-3150 490,-930 680,-1690 550,-2310 -140,-600 -740,-950 -1800,-1010l-10600 0 5190 -20690zm23330 -26700l59820 -43970c-6040,4950 -11370,9740 -15990,14360 -2770,2630 -4920,4890 -6470,6710 -1520,1830 -2910,3670 -4100,5500 -1200,1850 -2100,3610 -2750,5350 -630,1720 -760,3240 -380,4570 240,900 410,1690 460,2390 1060,4790 1140,10310 250,16560l-90 740 -29230 0c220,-2500 190,-4840 -50,-6990 -220,-2150 -710,-3890 -1470,-5220zm-60230 86850c-5820,-2890 -10250,-6800 -13290,-11810 -3020,-4970 -4870,-10630 -5490,-16960l33390 -24530 -330 1360c-1390,5630 -2120,10550 -2200,14820 -90,4240 540,7780 1870,10580 1120,2440 2690,4270 4710,5460 2010,1200 4270,1990 6770,2340l-25430 18740zm49740 -30920l49540 -36330c-330,380 -980,1120 -1960,2230 -980,1120 -2090,2370 -3320,3760 -1190,1380 -2390,2770 -3560,4180 -1170,1390 -2120,2610 -2880,3620 -460,840 -930,1790 -1390,2830 -460,1030 -870,2010 -1280,2910 -400,890 -700,1710 -950,2420 -240,730 -410,1190 -520,1380l-8040 32360 -170 160c-3340,2800 -7120,5220 -11340,7230 -4240,2040 -8640,3700 -13260,5010 -4630,1280 -9300,2250 -13980,2850 -4700,600 -9220,930 -13510,930 -2070,0 -4110,-80 -6120,-250 -1230,0 -2670,190 -4270,550 -1630,380 -3320,870 -5110,1490 -1770,600 -3590,1310 -5440,2100 -1880,810 -3640,1600 -5360,2390 -4130,1900 -8400,4050 -12800,6440l48670 -35750c6200,-220 11230,-1720 15030,-4460l2020 -8050z"/>
   <path id="_7" class="fil0" d="M1044260 86030l-30810 22710c-1770,-7970 -1520,-16940 710,-26920l1690 -6530c1950,-8070 4970,-15630 9020,-22620 4050,-7020 9000,-13130 14790,-18300 5770,-5190 12350,-9300 19720,-12260 7340,-3000 15280,-4490 23760,-4490 3290,0 6550,270 9760,790 3210,540 6260,1410 9170,2610 2880,1200 5620,2720 8210,4590 2550,1850 4860,4160 6880,6880l-40460 29720c950,-840 2230,-2040 3800,-3610 1610,-1580 3100,-3240 4520,-5040 1410,-1760 2470,-3500 3230,-5210 740,-1690 710,-3080 -80,-4140 -1390,-1170 -2930,-2010 -4620,-2500 -1710,-520 -3620,-760 -5740,-760 -4400,0 -8260,920 -11550,2750 -3290,1820 -6150,4210 -8510,7170 -2400,2940 -4410,6260 -6040,9960 -1600,3690 -2960,7390 -4030,11120l-2140 8510c-250,950 -490,1900 -680,2820 -170,930 -380,1850 -600,2750zm-62210 51420l173250 -127230c-6090,5220 -11500,10260 -16230,15150 -2880,2830 -5110,5190 -6740,7120 -1610,1960 -3100,3890 -4410,5880 -1330,1950 -2390,3860 -3150,5680 -760,1850 -1090,3450 -930,4810 1450,7830 960,16530 -1440,26130l-1250 5360c-1980,8020 -5000,15520 -9050,22540 -4050,7010 -8970,13110 -14740,18270 -5760,5190 -12320,9250 -19630,12240 -7340,2960 -15250,4460 -23740,4460 -5840,0 -11470,-850 -16880,-2560 -5440,-1690 -10250,-4650 -14490,-8840 -1390,-1330 -3460,-1980 -6230,-1980 -1550,0 -3210,190 -5030,540 -1800,380 -3650,870 -5520,1470 -1880,630 -3780,1310 -5710,2090 -1900,770 -3750,1550 -5580,2340 -4070,1910 -8230,4080 -12500,6530zm109380 -62270c520,-2230 960,-4320 1310,-6280 350,-1980 600,-3860 760,-5650 -160,-1090 -840,-1610 -2070,-1610 -650,0 -1380,160 -2230,520 -870,350 -1710,840 -2550,1470 -790,590 -2230,1650 -4270,3180 -2040,1550 -4380,3310 -7010,5300 -2620,1980 -5420,4110 -8350,6310 -2970,2200 -5690,4270 -8210,6200 -2530,1930 -4710,3610 -6530,5030 -1850,1380 -2990,2310 -3480,2740 -1360,1230 -2640,2480 -3810,3780 -1170,1310 -1630,2700 -1360,4190 280,4680 1720,8240 4350,10740 2610,2500 6370,3750 11260,3750 4570,0 8570,-1090 11960,-3260 3400,-2180 6340,-4950 8840,-8290 2500,-3350 4540,-7050 6170,-11070 1610,-4020 2910,-7940 3860,-11720l1360 -5330z"/>
   <g>
    <path class="fil1" d="M565470 107210c1720,6410 2380,30860 2420,36460 -1420,7040 -830,22800 1160,29700l-10 2090c-1630,11010 5400,38840 -6010,38420 -10640,-390 -5090,-28510 -8020,-39410 -164270,-2090 -323460,9990 -486500,22570 -21210,1640 -47700,6300 -68510,5910 3800,-4470 41710,-25440 50040,-30440 12150,-7280 52460,-8780 68180,-10470 91810,-9880 197910,-15570 290460,-18290 48720,-1440 97160,-380 145580,-1840 70,-9530 -810,-19070 -980,-28550 -210,-11860 6640,-15160 12190,-6150z"/>
    <path class="fil1" d="M569040 175460l10 -2090 5430 -540 4580 -13020c4040,3760 2990,6610 6910,11910l1490 -2240c1710,-3140 1840,-6040 4220,-9190l3580 6620c1520,3280 940,2830 3160,5050l5430 -12710c1590,3430 3760,10470 6770,12270l4600 -11750c210,190 460,490 570,640l1060 1340c140,200 330,520 460,740 1740,2970 1670,4930 4950,9240l5240 -12310 4910 9680c1250,2010 550,980 1690,2100 2410,-4110 2480,-7140 4280,-10290 1420,-2490 -230,-330 1620,-2190l5380 12920c2990,-3080 3150,-7340 5690,-12120 2270,1860 1850,1850 3690,6160 1180,2720 1260,3150 2910,5540 2960,-3610 2570,-7610 6010,-12050l6290 12250c840,-1780 1630,-3790 2550,-6210 1610,-4240 1000,-3750 3190,-6270l5600 12550c3170,-3420 2910,-7120 5620,-12010 3430,2740 2900,5930 6570,11040l1100 -1530c2700,-4480 1520,-5540 4610,-9800 3530,4260 3310,8060 6590,11600l4320 -9930c1020,-1840 400,-880 1460,-2110l6020 12730 5140 -12890c3470,3690 3570,7740 6620,12170 1700,-2260 5080,-9330 5090,-12960 10,-3940 -5280,-12880 -5470,-12340 -70,220 -390,-490 -610,-700l-4270 9270c-1410,2270 170,350 -1800,2180 -800,-2120 -1640,-4440 -2820,-6850l-3530 -5070 -4380 12040c-3980,-3830 -2840,-6090 -6770,-11630 -190,220 -410,550 -520,710 -100,170 -370,540 -490,740 -2150,3620 -2230,6440 -4700,9770l-1090 -1490c-130,-210 -360,-530 -500,-770 -140,-240 -330,-550 -470,-800 -510,-900 -1060,-2170 -1630,-3350 -1450,-2960 -1330,-2960 -2900,-4980 -1860,2990 -1550,3500 -2620,6300l-3410 5520 -5230 -11510c-3140,2080 -4480,8640 -5460,11760 -1750,-1540 -560,20 -2340,-2780l-4000 -9150c-3900,4050 -2730,6650 -6210,11440l-6560 -10970c-1970,3040 -1350,2530 -2670,5850l-3060 5220c-2910,-4720 -3100,-8390 -6550,-11430l-4740 10820c-3170,-2420 -3880,-6740 -6550,-10490 -1810,2240 -1380,1870 -2810,5280l-2910 5790c-200,-240 -440,-590 -560,-760 -120,-180 -400,-560 -540,-780 -140,-210 -360,-540 -500,-780l-3330 -6440c-970,-1530 -800,-1210 -1980,-2320l-5220 12140c-1870,-3650 -4080,-9820 -6820,-12030l-4600 11480 -3800 -5830c-1120,-2480 -1460,-3400 -2780,-5500 -2870,3260 -2830,7480 -6090,11930l-6190 -11700c-2730,4300 -2970,8370 -5750,11870l-5890 -13620 -5440 -170c-40,-5600 -700,-30050 -2420,-36460l1570 33390 161190 -250c16570,-60 41910,-6520 42970,16220 1090,23410 -19170,18930 -40020,18440 -17560,-410 -35970,-100 -53940,40 -35470,300 -72880,-1460 -108200,410z"/>
    <path class="fil2" d="M318870 152950c41200,-1590 219790,-9180 235660,-5070l380 5780 -98670 1660c-119430,3260 -223050,7330 -343470,20260 -22310,2390 -48050,7250 -69760,8080 190,-280 520,-290 620,-770l11020 -7520c6380,-3630 43090,-6060 51500,-6920 68790,-7030 143910,-12870 212720,-15500z"/>
    <path class="fil3" d="M569050 173370c-1990,-6900 -2580,-22660 -1160,-29700l5440 170 5890 13620c2780,-3500 3020,-7570 5750,-11870l6190 11700c3260,-4450 3220,-8670 6090,-11930 1320,2100 1660,3020 2780,5500l3800 5830 4600 -11480c2740,2210 4950,8380 6820,12030l5220 -12140c1180,1110 1010,790 1980,2320l3330 6440c140,240 360,570 500,780 140,220 420,600 540,780 120,170 360,520 560,760l2910 -5790c1430,-3410 1000,-3040 2810,-5280 2670,3750 3380,8070 6550,10490l4740 -10820c3450,3040 3640,6710 6550,11430l3060 -5220c1320,-3320 700,-2810 2670,-5850l6560 10970c3480,-4790 2310,-7390 6210,-11440l4000 9150c1780,2800 590,1240 2340,2780 980,-3120 2320,-9680 5460,-11760l5230 11510 3410 -5520c1070,-2800 760,-3310 2620,-6300 1570,2020 1450,2020 2900,4980 570,1180 1120,2450 1630,3350 140,250 330,560 470,800 140,240 370,560 500,770l1090 1490c2470,-3330 2550,-6150 4700,-9770 120,-200 390,-570 490,-740 110,-160 330,-490 520,-710 3930,5540 2790,7800 6770,11630l4380 -12040 3530 5070c1180,2410 2020,4730 2820,6850 1970,-1830 390,90 1800,-2180l4270 -9270c220,210 540,920 610,700 190,-540 5480,8400 5470,12340 -10,3630 -3390,10700 -5090,12960 -3050,-4430 -3150,-8480 -6620,-12170l-5140 12890 -6020 -12730c-1060,1230 -440,270 -1460,2110l-4320 9930c-3280,-3540 -3060,-7340 -6590,-11600 -3090,4260 -1910,5320 -4610,9800l-1100 1530c-3670,-5110 -3140,-8300 -6570,-11040 -2710,4890 -2450,8590 -5620,12010l-5600 -12550c-2190,2520 -1580,2030 -3190,6270 -920,2420 -1710,4430 -2550,6210l-6290 -12250c-3440,4440 -3050,8440 -6010,12050 -1650,-2390 -1730,-2820 -2910,-5540 -1840,-4310 -1420,-4300 -3690,-6160 -2540,4780 -2700,9040 -5690,12120l-5380 -12920c-1850,1860 -200,-300 -1620,2190 -1800,3150 -1870,6180 -4280,10290 -1140,-1120 -440,-90 -1690,-2100l-4910 -9680 -5240 12310c-3280,-4310 -3210,-6270 -4950,-9240 -130,-220 -320,-540 -460,-740l-1060 -1340c-110,-150 -360,-450 -570,-640l-4600 11750c-3010,-1800 -5180,-8840 -6770,-12270l-5430 12710c-2220,-2220 -1640,-1770 -3160,-5050l-3580 -6620c-2380,3150 -2510,6050 -4220,9190l-1490 2240c-3920,-5300 -2870,-8150 -6910,-11910l-4580 13020 -5430 540z"/>
    <path class="fil3" d="M736230 143560c12840,-310 30860,-4900 31700,13130 890,19420 -17210,14490 -30220,14860 -10,-6080 3390,-9160 3340,-13920 -30,-3660 -3520,-9000 -4820,-14070z"/>
   </g>
  </g>
 </g>
</svg>
